<svg xmlns="http://www.w3.org/2000/svg" width="21" height="22" viewBox="0 0 21 22" fill="none"
    class="h-[20px] w-[20px]">
    <path
        d="M19.3889 11V17C19.3889 18.8856 19.3889 19.8284 18.8031 20.4142C18.2173 21 17.2745 21 15.3889 21H4.38889C2.85477 21 1.61111 19.7563 1.61111 18.2222V18.2222C1.61111 16.6881 2.85477 15.4444 4.38889 15.4444H15.3889C17.2745 15.4444 18.2173 15.4444 18.8031 14.8587C19.3889 14.2729 19.3889 13.3301 19.3889 11.4444V5C19.3889 3.11438 19.3889 2.17157 18.8031 1.58579C18.2173 1 17.2745 1 15.3889 1H5.61112C3.7255 1 2.78269 1 2.1969 1.58579C1.61111 2.17157 1.61111 3.11438 1.61111 5V18.2222"
        stroke="white" stroke-width="2"></path>
    <path
        d="M14.3935 7.86121L10.5057 12.1108L10.4978 12.1021L7.22092 8.53993L6.62585 7.88715L6.60601 7.86121C5.87209 7.05712 5.87209 5.73858 6.60601 4.93449C6.64172 4.89558 6.68139 4.85667 6.72106 4.82209C7.43118 4.16498 8.47851 4.1693 9.18466 4.83938C9.2164 4.86964 9.24813 4.90423 9.28384 4.93881L10.5018 6.27032L11.7197 4.93881C11.7435 4.91287 11.7752 4.88261 11.799 4.861C12.521 4.15634 13.6199 4.16498 14.334 4.87829C14.3539 4.8999 14.3737 4.9172 14.3975 4.94313C15.1274 5.7429 15.1274 7.05279 14.3935 7.86121Z"
        fill="#FDCB34"></path>
</svg>